<svg id="svg" version="1.1" width="400" height="400" viewBox="0 0 400 400" xmlns="http://www.w3.org/2000/svg" xmlns:xlink="http://www.w3.org/1999/xlink"><g id="svgg"><path id="path0" d="M171.289 94.784 C 159.659 95.681,154.688 96.377,154.688 97.107 C 154.688 97.416,160.422 97.036,167.969 96.227 C 172.244 95.769,175.022 95.697,179.297 95.936 C 182.412 96.110,185.608 96.252,186.399 96.252 C 188.083 96.253,188.256 96.106,182.714 99.385 C 178.235 102.036,177.955 102.344,180.030 102.344 C 181.625 102.344,191.541 96.461,190.754 95.981 C 189.912 95.467,174.624 94.527,171.289 94.784 M191.016 106.974 C 191.016 107.153,192.761 109.126,194.895 111.359 C 197.029 113.591,198.743 115.442,198.704 115.471 C 198.636 115.521,190.334 119.867,186.847 121.677 C 184.868 122.704,181.905 126.176,182.500 126.770 C 182.681 126.952,189.113 123.667,195.117 120.328 L 199.805 117.720 206.335 116.841 L 212.864 115.961 215.514 118.069 C 216.972 119.229,218.661 120.501,219.268 120.896 C 220.049 121.403,221.292 123.451,223.510 127.879 L 226.648 134.145 226.390 136.897 C 225.527 146.137,220.212 164.273,218.040 165.390 C 217.464 165.687,211.982 168.078,205.859 170.704 C 173.454 184.604,170.230 186.131,167.642 188.801 C 164.917 191.612,164.825 191.645,185.742 182.438 C 214.512 169.774,217.729 168.380,217.860 168.511 C 219.060 169.712,216.856 172.308,210.983 176.609 C 189.747 192.163,163.850 212.027,164.266 212.443 C 164.366 212.543,164.786 212.320,165.198 211.947 C 165.610 211.574,166.182 211.234,166.470 211.192 C 168.380 210.910,175.660 206.016,190.039 195.347 C 213.211 178.153,222.673 171.449,230.041 167.004 C 233.664 164.819,238.101 160.156,236.558 160.156 C 236.367 160.156,222.576 168.499,221.300 169.386 C 220.876 169.681,220.430 169.922,220.309 169.922 C 220.188 169.922,221.730 165.044,223.736 159.082 C 226.759 150.097,227.546 147.240,228.339 142.383 C 228.865 139.160,229.380 136.039,229.483 135.446 C 229.622 134.640,228.784 132.585,226.160 127.299 L 222.651 120.230 217.949 116.634 L 213.247 113.038 207.347 113.954 C 201.536 114.856,201.433 114.859,200.625 114.125 C 198.783 112.453,191.016 106.672,191.016 106.974 M216.648 109.082 C 218.044 111.446,218.920 112.072,223.348 113.875 C 225.868 114.901,229.666 116.505,231.789 117.440 C 233.911 118.376,235.682 119.141,235.725 119.141 C 236.195 119.141,235.244 116.616,234.620 116.209 C 231.343 114.066,215.998 107.980,216.648 109.082 " stroke="none" fill="#f6f6f6" fill-rule="evenodd"></path><path id="path1" d="M193.061 88.223 L 192.177 88.477 193.061 89.728 C 194.228 91.380,195.235 91.879,197.097 91.727 L 198.633 91.602 196.923 89.746 C 195.229 87.909,194.776 87.730,193.061 88.223 M182.992 167.594 C 168.178 182.409,156.188 194.531,156.348 194.531 C 156.509 194.531,158.195 193.735,160.095 192.762 C 162.313 191.627,163.817 191.081,164.295 191.237 C 164.855 191.420,164.905 191.385,164.499 191.095 C 163.859 190.639,165.324 190.002,166.022 190.434 C 166.244 190.571,166.377 190.533,166.318 190.350 C 166.201 189.985,169.133 186.914,169.599 186.914 C 169.758 186.914,170.116 186.632,170.393 186.288 C 170.671 185.943,171.310 185.388,171.813 185.054 C 172.756 184.428,178.304 178.654,192.927 163.082 C 209.282 145.665,209.029 145.965,209.646 143.294 C 209.947 141.990,210.134 140.863,210.060 140.790 C 209.987 140.716,197.806 152.778,182.992 167.594 " stroke="none" fill="#059ee3" fill-rule="evenodd"></path><path id="path2" d="M184.556 83.887 C 182.471 85.444,180.478 86.733,180.128 86.750 C 175.923 86.955,165.829 87.794,167.060 87.836 C 168.120 87.871,169.076 88.205,169.794 88.791 C 170.402 89.286,171.417 89.726,172.050 89.770 C 173.144 89.844,173.164 89.819,172.441 89.272 C 172.022 88.956,171.328 88.671,170.898 88.639 C 170.211 88.588,170.202 88.559,170.820 88.399 C 171.206 88.299,171.733 88.377,171.991 88.572 C 173.111 89.420,179.455 91.093,186.621 92.429 C 187.660 92.623,187.798 93.627,186.816 93.844 C 186.440 93.928,187.603 93.939,189.399 93.869 C 191.196 93.799,192.866 93.612,193.110 93.453 C 193.496 93.202,198.077 92.943,202.344 92.930 C 203.800 92.926,204.242 93.329,206.673 96.875 L 207.877 98.633 206.575 97.084 C 203.320 93.213,203.920 93.546,200.355 93.638 C 198.583 93.685,197.024 93.900,196.889 94.117 C 196.755 94.335,196.099 94.473,195.431 94.424 C 194.763 94.376,194.298 94.204,194.397 94.043 C 194.496 93.882,194.297 93.750,193.955 93.750 C 193.495 93.750,193.419 93.929,193.664 94.434 C 193.847 94.810,193.963 95.337,193.922 95.605 C 193.881 95.874,193.826 96.270,193.799 96.484 C 193.703 97.252,191.797 96.922,191.797 96.137 C 191.797 95.215,191.211 95.109,182.678 94.481 C 176.088 93.995,165.629 94.381,159.766 95.325 L 157.617 95.671 159.961 95.510 C 161.250 95.422,165.429 95.134,169.247 94.871 C 176.903 94.344,191.406 95.177,191.406 96.144 C 191.406 96.331,191.244 96.484,191.046 96.484 C 190.848 96.484,188.694 97.801,186.261 99.411 C 183.827 101.021,181.518 102.339,181.129 102.341 C 180.741 102.343,180.533 102.522,180.668 102.741 C 180.803 102.959,181.077 103.037,181.277 102.913 C 181.477 102.789,181.641 102.870,181.641 103.091 C 181.641 103.313,182.768 105.211,184.145 107.309 C 185.523 109.407,186.579 111.239,186.491 111.380 C 186.404 111.521,186.586 111.734,186.896 111.853 C 188.810 112.587,187.913 118.785,185.461 121.777 C 184.766 122.625,185.399 122.347,192.144 118.840 L 198.732 115.415 195.091 111.629 C 193.089 109.547,191.242 107.454,190.987 106.978 C 190.542 106.147,197.630 111.319,200.195 113.698 C 201.285 114.708,201.505 114.762,203.320 114.458 C 204.395 114.278,207.065 113.847,209.254 113.501 L 213.235 112.871 217.905 116.422 L 222.575 119.972 226.167 127.118 L 229.760 134.265 228.686 141.058 C 227.732 147.089,227.202 149.074,223.962 158.743 C 221.955 164.733,220.313 169.696,220.313 169.773 C 220.313 169.849,221.274 169.297,222.449 168.546 C 223.623 167.794,227.359 165.510,230.749 163.469 L 236.914 159.758 240.247 153.118 L 243.581 146.477 242.309 142.086 C 241.610 139.671,240.984 137.344,240.919 136.914 C 240.854 136.484,240.656 135.901,240.478 135.619 C 240.301 135.336,240.260 135.000,240.387 134.873 C 240.514 134.746,240.464 134.450,240.274 134.216 C 240.085 133.981,239.014 130.530,237.893 126.548 L 235.856 119.306 229.744 116.704 C 226.383 115.272,222.605 113.710,221.348 113.232 C 218.752 112.243,218.314 111.751,210.334 100.841 C 199.481 86.002,199.585 86.160,200.521 85.879 C 203.669 84.933,211.453 86.586,214.956 88.942 C 216.015 89.656,216.788 89.993,216.672 89.692 C 216.502 89.249,216.749 89.267,217.961 89.784 C 218.785 90.137,219.405 90.514,219.338 90.622 C 219.270 90.731,219.682 90.828,220.252 90.838 C 220.822 90.848,222.080 90.996,223.047 91.168 L 224.805 91.480 223.569 90.564 C 222.890 90.061,221.571 89.184,220.640 88.616 C 216.435 86.052,211.889 83.046,211.627 82.655 C 211.469 82.419,211.337 82.370,211.334 82.546 C 211.331 82.722,210.826 82.508,210.211 82.071 C 209.166 81.326,208.431 81.268,198.721 81.165 L 188.348 81.055 184.556 83.887 M203.599 83.405 C 200.747 84.503,195.387 85.070,191.016 84.738 C 189.396 84.615,188.697 84.466,189.453 84.404 L 190.820 84.291 189.125 83.913 C 186.452 83.315,187.257 83.201,195.740 82.971 C 200.120 82.852,203.778 82.680,203.870 82.588 C 203.962 82.497,204.491 82.430,205.046 82.441 C 205.758 82.454,205.332 82.738,203.599 83.405 M162.852 89.123 C 160.618 90.725,155.789 94.982,155.984 95.177 C 156.067 95.260,156.820 94.692,157.657 93.915 C 159.790 91.936,162.044 90.108,163.824 88.912 C 164.660 88.350,165.169 87.891,164.957 87.891 C 164.744 87.891,163.797 88.445,162.852 89.123 M182.813 88.647 C 185.987 89.454,192.333 91.782,192.071 92.044 C 191.982 92.133,190.384 91.667,188.520 91.009 C 186.657 90.351,184.973 89.911,184.780 90.030 C 184.587 90.149,184.322 90.074,184.192 89.863 C 184.061 89.652,183.468 89.576,182.873 89.695 C 182.152 89.839,181.621 89.705,181.278 89.291 C 180.941 88.886,180.071 88.657,178.761 88.629 C 173.929 88.527,171.793 88.009,175.977 87.954 C 178.681 87.918,180.784 88.132,182.813 88.647 M197.044 89.591 C 198.810 91.746,198.801 91.797,196.635 91.797 C 194.217 91.797,190.968 88.657,192.871 88.160 C 194.888 87.633,195.655 87.896,197.044 89.591 M172.461 90.802 C 173.527 91.717,178.018 93.378,179.339 93.346 C 180.259 93.324,176.819 91.824,175.816 91.810 C 175.297 91.803,174.067 91.347,173.081 90.797 L 171.289 89.796 172.461 90.802 M181.250 93.401 C 181.250 93.593,181.558 93.752,181.934 93.755 C 182.310 93.758,183.057 93.872,183.594 94.008 C 184.131 94.145,184.452 94.127,184.308 93.969 C 183.884 93.504,181.250 93.015,181.250 93.401 M154.157 96.492 C 153.475 97.257,153.307 97.656,153.666 97.656 C 153.967 97.656,154.311 97.402,154.430 97.092 C 154.549 96.781,155.279 96.409,156.052 96.264 C 157.632 95.967,157.644 95.913,156.211 95.570 C 155.404 95.377,154.980 95.567,154.157 96.492 M168.750 96.299 C 166.064 96.597,161.765 96.965,159.195 97.117 C 154.039 97.422,154.195 97.818,159.878 98.848 C 161.206 99.089,162.457 99.387,162.656 99.511 C 162.856 99.634,163.474 99.776,164.029 99.827 C 165.300 99.943,173.431 101.533,174.219 101.820 C 175.698 102.358,178.435 102.325,178.902 101.763 C 179.166 101.445,181.130 100.171,183.266 98.932 L 187.150 96.680 184.884 96.416 C 179.787 95.824,173.445 95.778,168.750 96.299 M190.007 98.284 C 190.347 98.414,190.622 98.810,190.619 99.163 C 190.616 99.531,190.491 99.638,190.326 99.414 C 189.897 98.831,189.134 98.768,188.168 99.236 C 187.341 99.636,187.344 99.619,188.227 98.850 C 189.273 97.939,189.183 97.968,190.007 98.284 M186.032 100.694 C 184.480 101.990,184.437 102.295,185.840 102.041 C 186.456 101.929,186.775 101.994,186.589 102.193 C 186.410 102.383,186.184 102.489,186.086 102.427 C 185.572 102.103,184.685 103.591,185.131 104.029 C 185.496 104.387,185.574 104.363,185.477 103.922 C 185.399 103.567,185.680 103.329,186.220 103.292 C 186.698 103.259,186.994 103.387,186.877 103.576 C 186.760 103.765,186.482 103.806,186.259 103.668 C 185.998 103.507,185.947 103.747,186.117 104.346 C 186.261 104.856,186.236 105.098,186.061 104.883 C 185.886 104.668,185.522 104.475,185.254 104.453 C 184.985 104.432,184.448 104.388,184.059 104.355 C 183.670 104.323,183.011 104.024,182.594 103.691 C 181.864 103.107,181.873 103.093,182.813 103.319 C 183.673 103.525,183.703 103.500,183.066 103.102 C 182.414 102.696,182.568 102.501,184.628 101.132 C 187.295 99.359,187.829 99.192,186.032 100.694 M203.320 104.981 C 209.107 107.206,214.859 109.746,211.914 108.777 C 210.609 108.347,195.954 102.701,195.117 102.306 C 192.647 101.138,197.111 102.594,203.320 104.981 M197.461 104.627 C 203.464 107.816,207.031 109.826,207.031 110.017 C 207.031 110.118,204.463 108.849,201.324 107.197 C 196.730 104.780,195.544 104.299,195.240 104.734 C 194.929 105.178,194.892 105.170,195.031 104.688 C 195.133 104.332,194.722 103.839,193.987 103.434 C 193.319 103.067,193.037 102.765,193.359 102.763 C 193.682 102.761,195.527 103.600,197.461 104.627 M194.351 105.054 C 194.226 105.256,194.436 105.602,194.816 105.823 C 195.447 106.191,195.435 106.227,194.674 106.238 C 194.163 106.245,193.762 105.948,193.637 105.469 C 193.501 104.950,193.625 104.688,194.005 104.688 C 194.320 104.688,194.475 104.852,194.351 105.054 M191.867 105.970 C 193.134 107.200,194.956 108.230,195.407 107.970 C 195.678 107.814,195.766 107.833,195.605 108.011 C 195.184 108.475,196.467 109.766,197.349 109.766 C 197.758 109.766,198.006 109.906,197.900 110.078 C 197.794 110.250,198.047 110.603,198.463 110.863 C 198.879 111.122,199.219 111.172,199.219 110.973 C 199.219 110.775,198.999 110.534,198.730 110.438 C 198.462 110.342,198.366 110.130,198.517 109.968 C 198.667 109.806,199.064 109.946,199.398 110.280 C 199.816 110.697,199.871 110.971,199.576 111.154 C 198.948 111.541,201.324 113.584,202.632 113.782 C 203.681 113.941,203.677 113.947,202.489 114.004 C 201.817 114.036,201.065 113.818,200.816 113.519 C 200.568 113.220,198.657 111.686,196.569 110.110 C 191.362 106.179,190.503 105.469,190.958 105.469 C 191.174 105.469,191.583 105.694,191.867 105.970 M218.164 108.775 C 218.809 109.094,222.500 110.695,226.367 112.333 C 235.645 116.264,235.972 116.424,235.678 116.900 C 235.540 117.125,235.600 117.201,235.812 117.070 C 236.024 116.939,237.234 117.252,238.500 117.767 C 241.430 118.958,241.509 118.825,239.361 116.318 C 236.959 113.516,234.164 110.564,234.819 111.522 C 235.112 111.951,235.567 112.531,235.831 112.811 C 236.210 113.213,236.210 113.486,235.831 114.113 C 235.099 115.324,233.483 114.924,225.781 111.622 C 219.363 108.871,215.250 107.334,218.164 108.775 M210.156 116.394 C 209.404 116.559,206.943 116.901,204.688 117.155 C 200.388 117.639,200.179 117.716,193.750 121.211 C 191.709 122.320,188.024 124.285,185.562 125.579 L 181.085 127.930 179.689 131.641 C 178.921 133.682,178.141 135.703,177.955 136.133 C 177.769 136.563,177.573 137.115,177.521 137.362 C 177.290 138.439,174.863 144.773,174.511 145.215 C 174.298 145.483,174.225 145.703,174.349 145.703 C 174.546 145.703,174.056 147.131,172.272 151.758 C 172.023 152.402,171.826 152.971,171.832 153.022 C 171.851 153.166,170.836 155.927,170.287 157.227 C 169.739 158.523,169.652 158.793,169.580 159.398 C 169.553 159.626,169.357 159.704,169.145 159.573 C 168.933 159.442,168.853 159.579,168.968 159.879 C 169.151 160.356,165.333 171.557,164.571 172.777 C 164.411 173.033,164.236 173.506,164.182 173.828 C 164.129 174.150,162.572 178.369,160.723 183.203 C 158.875 188.037,157.262 192.344,157.140 192.773 C 157.018 193.203,168.986 181.514,183.737 166.797 L 210.555 140.039 211.377 134.570 C 211.921 130.950,212.216 126.957,212.252 122.756 C 212.281 119.266,212.363 116.410,212.435 116.408 C 212.506 116.407,214.261 117.746,216.333 119.383 L 220.102 122.359 223.128 128.465 L 226.153 134.570 225.360 140.430 C 224.676 145.478,224.151 147.552,221.561 155.416 L 218.555 164.543 216.406 165.504 C 215.225 166.032,209.424 168.544,203.516 171.087 C 197.607 173.630,188.730 177.483,183.789 179.650 C 175.582 183.249,173.313 184.128,174.414 183.281 C 174.629 183.116,176.035 181.669,177.538 180.065 C 179.620 177.843,179.321 178.074,176.281 181.035 C 174.086 183.172,172.342 184.972,172.404 185.034 C 172.467 185.097,176.108 183.554,180.497 181.606 C 184.886 179.659,194.541 175.454,201.953 172.263 C 209.365 169.071,216.224 166.106,217.194 165.674 L 218.958 164.888 221.987 155.705 C 224.638 147.666,225.116 145.773,225.819 140.516 L 226.622 134.510 223.565 128.273 L 220.508 122.036 216.569 119.026 C 214.403 117.370,212.381 116.033,212.077 116.055 C 211.772 116.076,210.908 116.229,210.156 116.394 M203.271 152.223 C 200.505 155.164,198.438 157.454,198.676 157.311 C 199.245 156.972,208.741 146.875,208.491 146.875 C 208.386 146.875,206.037 149.281,203.271 152.223 M195.880 160.254 L 194.336 161.914 195.996 160.370 C 197.540 158.934,197.836 158.594,197.540 158.594 C 197.476 158.594,196.729 159.341,195.880 160.254 M190.808 165.723 L 188.477 168.164 190.918 165.833 C 193.186 163.667,193.538 163.281,193.249 163.281 C 193.189 163.281,192.090 164.380,190.808 165.723 M232.617 165.395 C 231.543 166.124,228.115 168.358,225.000 170.360 C 218.839 174.318,216.005 176.333,200.391 187.852 C 182.611 200.969,182.403 201.139,181.648 203.125 C 181.280 204.092,179.653 208.135,178.032 212.109 C 176.411 216.084,172.687 225.312,169.758 232.617 C 166.828 239.922,164.248 246.223,164.024 246.620 C 163.319 247.872,163.872 247.724,166.643 245.918 C 168.124 244.953,169.468 244.158,169.629 244.152 C 169.790 244.146,170.229 243.860,170.605 243.517 C 170.981 243.174,172.814 241.853,174.677 240.581 L 178.065 238.268 179.515 233.880 C 180.312 231.467,181.064 229.319,181.186 229.108 C 181.308 228.897,181.433 228.458,181.464 228.132 C 181.606 226.611,185.644 214.987,186.168 214.590 C 186.533 214.314,186.597 214.087,186.335 214.000 C 186.070 213.911,186.659 211.661,187.895 208.034 C 189.731 202.647,190.584 200.528,190.613 201.279 C 190.636 201.869,187.757 213.089,187.533 213.281 C 187.407 213.389,187.258 213.916,187.201 214.453 C 187.071 215.673,183.736 227.793,181.799 234.082 C 181.471 235.145,182.103 234.935,186.768 232.430 C 189.159 231.145,191.313 230.207,191.554 230.344 C 191.795 230.482,191.868 230.456,191.716 230.288 C 191.564 230.119,191.775 229.695,192.185 229.346 C 192.595 228.996,193.090 227.834,193.287 226.758 C 193.964 223.057,196.517 211.132,196.758 210.547 C 196.890 210.225,196.962 209.803,196.918 209.610 C 196.873 209.416,196.956 208.977,197.102 208.633 C 197.249 208.289,197.428 207.568,197.501 207.031 C 197.574 206.494,198.061 203.959,198.583 201.399 L 199.532 196.743 202.305 194.019 L 205.078 191.295 204.833 197.894 C 204.677 202.089,204.723 204.350,204.961 204.102 C 205.487 203.550,210.516 195.653,214.129 189.704 C 215.829 186.906,217.266 184.916,217.374 185.212 C 217.481 185.503,217.615 188.027,217.671 190.820 L 217.773 195.898 222.944 185.606 C 225.788 179.944,229.040 173.744,230.171 171.826 C 233.593 166.021,234.722 164.062,234.645 164.066 C 234.604 164.068,233.691 164.666,232.617 165.395 M215.430 169.444 C 214.355 169.981,207.500 173.022,200.195 176.201 C 192.891 179.380,182.404 183.970,176.891 186.401 L 166.867 190.820 159.393 205.566 C 155.281 213.677,152.062 220.313,152.239 220.313 C 152.416 220.313,152.952 220.039,153.429 219.704 C 153.907 219.369,154.474 219.204,154.688 219.336 C 154.903 219.469,155.078 219.375,155.078 219.129 C 155.078 218.589,156.651 217.219,157.292 217.200 C 157.542 217.193,157.806 217.045,157.878 216.872 C 157.949 216.698,158.799 215.996,159.766 215.311 C 161.610 214.005,162.430 213.369,172.485 205.444 C 182.957 197.190,215.057 173.251,216.304 172.765 C 216.571 172.661,216.976 171.880,217.205 171.029 C 217.434 170.178,217.718 169.230,217.837 168.921 C 218.116 168.193,217.788 168.264,215.430 169.444 M183.984 172.852 C 181.736 175.107,180.069 176.929,180.280 176.900 C 180.669 176.846,188.589 168.750,188.254 168.750 C 188.154 168.750,186.233 170.596,183.984 172.852 M175.781 205.882 C 174.600 206.740,172.010 208.426,170.027 209.629 C 167.128 211.388,166.327 212.077,165.941 213.145 C 165.601 214.086,165.285 214.407,164.859 214.245 C 164.397 214.069,164.364 214.123,164.718 214.480 C 165.123 214.888,163.757 218.665,162.891 219.531 C 162.783 219.639,162.666 219.903,162.630 220.119 C 162.593 220.335,161.117 223.499,159.349 227.150 C 157.580 230.802,156.090 233.991,156.037 234.237 C 155.984 234.483,155.068 236.377,154.001 238.446 C 152.934 240.515,152.198 242.292,152.364 242.396 C 152.531 242.499,152.727 242.426,152.799 242.234 C 152.871 242.042,155.566 240.931,158.789 239.766 L 164.648 237.647 165.968 234.937 C 166.984 232.851,172.928 218.327,178.147 205.176 C 178.626 203.969,178.268 204.076,175.781 205.882 M196.639 258.427 C 188.509 259.850,183.895 266.231,186.496 272.456 C 186.847 273.295,187.049 274.202,186.946 274.471 C 186.834 274.763,186.974 274.877,187.295 274.754 C 187.895 274.524,188.800 275.897,188.365 276.378 C 188.212 276.549,188.282 276.576,188.522 276.439 C 188.762 276.302,189.904 276.696,191.061 277.315 C 193.016 278.360,197.870 279.903,200.586 280.344 C 202.788 280.700,205.065 281.945,205.471 283.014 C 207.214 287.597,199.006 288.994,191.406 285.408 C 188.247 283.918,188.435 283.911,187.538 285.547 C 187.125 286.299,186.583 286.866,186.333 286.807 C 186.084 286.748,185.988 286.874,186.120 287.088 C 186.252 287.302,186.082 288.015,185.742 288.672 C 185.033 290.042,185.152 290.368,186.629 291.114 C 187.215 291.411,188.047 291.848,188.477 292.087 C 189.167 292.471,190.661 293.036,190.913 293.009 C 190.963 293.004,191.754 293.269,192.670 293.598 C 205.897 298.348,219.859 286.397,211.793 277.229 C 211.224 276.583,211.233 276.551,211.902 276.807 C 212.424 277.008,212.544 276.950,212.329 276.602 C 212.165 276.336,211.769 276.219,211.448 276.342 C 211.128 276.465,210.399 276.233,209.828 275.827 C 209.257 275.421,208.130 274.815,207.324 274.479 C 206.519 274.143,205.857 273.639,205.853 273.360 C 205.849 273.020,205.753 272.991,205.560 273.274 C 205.214 273.785,198.151 272.056,196.175 270.977 C 194.321 269.965,193.365 266.266,195.133 266.944 C 195.468 267.073,195.587 266.948,195.455 266.606 C 194.588 264.346,202.985 265.129,208.254 267.799 C 209.344 268.351,210.114 268.608,209.967 268.369 C 209.819 268.130,209.977 267.509,210.318 266.988 C 211.186 265.664,212.891 262.586,212.891 262.344 C 212.891 261.415,206.045 258.728,202.735 258.358 C 201.768 258.250,200.625 258.112,200.195 258.052 C 199.766 257.991,198.165 258.160,196.639 258.427 M148.224 259.254 C 147.968 259.510,147.808 260.170,147.869 260.721 C 147.943 261.397,147.831 261.634,147.524 261.450 C 147.275 261.301,147.312 261.476,147.606 261.839 C 148.020 262.349,148.038 262.626,147.685 263.051 C 147.385 263.413,147.364 263.686,147.623 263.847 C 148.324 264.280,147.974 273.384,147.267 273.113 C 146.758 272.918,146.761 273.014,147.288 273.847 C 148.012 274.989,148.280 277.534,147.636 277.136 C 147.397 276.988,147.435 277.235,147.721 277.693 C 148.133 278.353,148.139 278.670,147.750 279.292 C 147.484 279.718,147.283 280.378,147.305 280.756 C 147.330 281.210,147.443 281.112,147.634 280.469 C 147.794 279.932,147.928 282.305,147.933 285.742 C 147.939 289.758,147.786 292.193,147.506 292.555 C 147.174 292.985,147.186 293.049,147.559 292.825 C 147.827 292.664,148.047 292.704,148.047 292.913 C 148.047 293.123,147.827 293.383,147.559 293.491 C 147.290 293.600,149.224 293.702,151.855 293.719 L 156.641 293.750 156.641 286.524 L 156.641 279.299 164.324 279.332 C 169.029 279.352,171.792 279.501,171.453 279.715 C 171.016 279.992,171.009 280.067,171.419 280.072 C 171.839 280.077,171.915 281.414,171.810 286.914 L 171.680 293.751 176.563 293.720 C 179.248 293.702,181.226 293.600,180.957 293.491 C 180.688 293.383,180.469 293.060,180.469 292.773 C 180.469 292.487,180.688 292.164,180.957 292.056 C 181.348 291.898,181.348 291.852,180.957 291.828 C 180.688 291.811,180.469 291.611,180.469 291.383 C 180.469 291.156,180.645 291.078,180.859 291.211 C 181.074 291.344,181.250 291.266,181.250 291.039 C 181.250 290.811,181.095 290.625,180.905 290.625 C 180.406 290.625,180.356 264.613,180.853 263.684 C 181.129 263.168,181.123 262.858,180.833 262.679 C 180.603 262.537,180.468 261.691,180.533 260.800 L 180.651 259.180 178.691 258.984 C 177.613 258.877,175.599 258.789,174.216 258.789 L 171.701 258.789 171.815 265.482 L 171.929 272.176 164.285 272.188 L 156.641 272.199 156.641 265.592 C 156.641 260.589,156.522 258.974,156.152 258.941 C 153.252 258.686,148.609 258.869,148.224 259.254 M219.034 269.336 C 219.083 275.137,219.127 283.003,219.132 286.816 L 219.141 293.750 223.535 293.750 L 227.930 293.750 227.800 290.527 C 227.640 286.571,227.651 287.665,227.641 274.023 C 227.636 267.793,227.626 262.168,227.619 261.523 C 227.612 260.879,227.679 260.014,227.768 259.602 C 227.920 258.899,227.653 258.851,223.438 258.821 L 218.945 258.789 219.034 269.336 M236.426 258.914 L 235.547 259.039 235.547 276.394 L 235.547 293.750 239.941 293.750 L 244.336 293.750 244.269 280.371 C 244.232 273.013,244.188 265.146,244.171 262.891 L 244.140 258.789 240.723 258.789 C 238.843 258.789,236.909 258.845,236.426 258.914 M234.864 260.352 C 234.868 261.211,234.948 261.517,235.042 261.031 C 235.135 260.545,235.132 259.842,235.034 259.468 C 234.936 259.095,234.860 259.492,234.864 260.352 M234.883 274.609 C 234.883 275.791,234.956 276.274,235.045 275.684 C 235.135 275.093,235.135 274.126,235.045 273.535 C 234.956 272.944,234.883 273.428,234.883 274.609 M234.864 278.320 C 234.868 279.180,234.948 279.485,235.042 278.999 C 235.135 278.513,235.132 277.810,235.034 277.437 C 234.936 277.063,234.860 277.461,234.864 278.320 " stroke="none" fill="#080808" fill-rule="evenodd"></path><path id="path3" d="M195.215 81.151 C 197.632 81.220,201.587 81.220,204.004 81.151 C 206.421 81.082,204.443 81.026,199.609 81.026 C 194.775 81.026,192.798 81.082,195.215 81.151 M198.242 83.203 C 195.879 83.333,194.604 83.474,195.410 83.517 C 196.395 83.568,196.875 83.780,196.875 84.161 C 196.875 84.615,197.279 84.681,198.892 84.490 C 201.065 84.233,205.241 82.804,203.516 82.908 C 202.979 82.940,200.605 83.073,198.242 83.203 M200.879 85.813 C 199.684 86.056,199.577 85.833,203.447 91.157 C 205.343 93.765,208.971 98.755,211.508 102.246 C 214.046 105.737,216.285 108.594,216.483 108.594 C 216.681 108.594,216.734 108.418,216.602 108.203 C 216.220 107.585,216.570 107.695,221.706 109.807 C 224.624 111.007,226.456 111.965,226.304 112.211 C 226.150 112.460,226.241 112.503,226.536 112.321 C 227.115 111.963,230.147 113.245,229.852 113.722 C 229.739 113.904,229.885 113.962,230.176 113.850 C 230.467 113.739,231.378 113.929,232.201 114.272 C 233.188 114.685,233.828 114.766,234.083 114.510 C 234.296 114.298,234.689 114.208,234.957 114.310 C 235.910 114.676,235.880 112.973,234.917 112.068 C 234.404 111.586,233.984 111.012,233.984 110.793 C 233.984 110.573,234.644 110.999,235.449 111.740 L 236.914 113.086 235.583 111.636 C 234.850 110.839,234.120 110.268,233.959 110.367 C 233.799 110.466,232.947 109.688,232.068 108.638 C 230.518 106.786,230.056 105.949,230.859 106.445 C 231.681 106.953,231.182 106.349,229.395 104.671 L 227.540 102.930 229.084 104.590 C 229.933 105.503,230.460 106.240,230.255 106.228 C 229.446 106.179,226.570 102.220,226.982 101.723 C 227.274 101.371,227.191 101.178,226.681 101.021 C 226.294 100.903,226.680 100.903,227.539 101.021 C 228.398 101.140,229.412 101.277,229.791 101.327 C 230.171 101.378,230.692 101.630,230.951 101.888 C 231.317 102.255,231.122 102.315,230.066 102.160 C 228.979 102.002,229.059 102.065,230.469 102.481 C 232.805 103.170,232.846 103.022,230.820 101.220 C 229.378 99.937,228.976 99.758,228.320 100.105 C 227.650 100.460,227.607 100.436,228.022 99.932 C 228.421 99.449,228.323 99.179,227.471 98.403 C 226.902 97.885,226.563 97.681,226.718 97.949 C 226.873 98.218,226.840 98.438,226.646 98.438 C 226.176 98.438,224.945 97.060,225.193 96.812 C 225.300 96.705,224.906 96.192,224.318 95.672 C 223.351 94.818,223.319 94.811,223.989 95.605 C 224.397 96.089,224.555 96.484,224.340 96.484 C 223.843 96.484,222.590 95.118,222.849 94.859 C 222.956 94.752,222.562 94.239,221.974 93.719 C 221.007 92.865,220.976 92.858,221.645 93.652 C 222.923 95.167,221.958 94.622,218.834 92.063 C 213.130 87.393,205.741 84.820,200.879 85.813 M172.949 87.001 C 173.647 87.088,174.790 87.088,175.488 87.001 C 176.187 86.915,175.615 86.844,174.219 86.844 C 172.822 86.844,172.251 86.915,172.949 87.001 M167.485 87.386 C 167.971 87.479,168.674 87.476,169.048 87.378 C 169.421 87.280,169.023 87.204,168.164 87.208 C 167.305 87.212,166.999 87.292,167.485 87.386 M164.245 88.828 C 162.805 89.455,158.405 93.245,158.381 93.880 C 158.371 94.131,158.138 94.288,157.863 94.229 C 157.589 94.170,157.466 94.286,157.591 94.488 C 157.715 94.690,157.597 94.944,157.327 95.053 C 156.485 95.392,158.175 95.321,165.039 94.729 C 168.691 94.414,173.701 94.123,176.172 94.081 C 180.168 94.014,180.384 93.978,178.125 93.750 C 176.729 93.609,175.850 93.450,176.172 93.396 C 176.494 93.342,176.230 93.111,175.586 92.882 C 174.129 92.365,170.685 90.121,169.732 89.068 C 168.887 88.135,166.114 88.014,164.245 88.828 M216.797 89.590 C 217.119 89.898,217.822 90.279,218.359 90.436 C 219.597 90.798,219.324 90.538,217.578 89.692 C 216.586 89.211,216.372 89.183,216.797 89.590 M224.389 90.975 C 224.536 91.212,224.425 91.412,224.144 91.418 C 223.834 91.425,223.907 91.590,224.329 91.835 C 225.636 92.596,226.458 92.074,225.225 91.266 C 224.619 90.869,224.242 90.738,224.389 90.975 M158.207 92.379 C 157.941 92.698,157.597 92.882,157.443 92.786 C 157.288 92.691,157.161 92.872,157.161 93.188 C 157.161 93.615,157.397 93.543,158.073 92.908 C 158.574 92.437,158.984 91.994,158.984 91.924 C 158.984 91.641,158.663 91.829,158.207 92.379 M182.715 94.416 C 183.198 94.509,183.989 94.509,184.473 94.416 C 184.956 94.323,184.561 94.247,183.594 94.247 C 182.627 94.247,182.231 94.323,182.715 94.416 M177.441 94.801 C 177.817 94.899,178.433 94.899,178.809 94.801 C 179.185 94.702,178.877 94.622,178.125 94.622 C 177.373 94.622,177.065 94.702,177.441 94.801 M152.344 97.420 C 152.344 97.770,152.901 98.018,153.906 98.114 C 154.766 98.196,155.469 98.126,155.469 97.960 C 155.469 97.793,154.941 97.656,154.297 97.656 C 153.652 97.656,153.125 97.480,153.125 97.266 C 153.125 97.051,152.949 96.875,152.734 96.875 C 152.520 96.875,152.344 97.120,152.344 97.420 M181.498 104.211 C 181.390 104.386,181.441 104.756,181.612 105.032 C 181.855 105.424,181.973 105.402,182.155 104.928 C 182.401 104.287,181.834 103.669,181.498 104.211 M232.401 108.309 C 233.141 109.110,233.828 109.766,233.926 109.766 C 234.025 109.766,233.814 109.444,233.458 109.050 C 233.102 108.657,232.899 108.217,233.007 108.074 C 233.115 107.930,233.086 107.901,232.942 108.009 C 232.798 108.117,232.315 107.901,231.868 107.529 C 231.421 107.157,231.660 107.508,232.401 108.309 M185.014 109.680 C 184.906 109.855,184.957 110.224,185.128 110.501 C 185.370 110.893,185.489 110.870,185.671 110.397 C 185.917 109.756,185.349 109.137,185.014 109.680 M212.528 121.777 C 212.524 126.770,211.344 137.553,210.582 139.556 C 210.123 140.764,210.323 140.991,210.899 139.916 C 212.067 137.733,213.939 116.797,212.967 116.797 C 212.670 116.797,212.530 118.383,212.528 121.777 M235.688 117.383 C 235.417 118.090,235.771 119.141,236.281 119.141 C 236.590 119.141,236.606 118.332,236.312 117.578 C 236.270 117.471,236.256 117.251,236.282 117.090 C 236.365 116.562,235.918 116.783,235.688 117.383 M240.281 117.383 C 240.629 117.813,241.011 118.428,241.129 118.750 C 241.312 119.247,241.349 119.242,241.375 118.713 C 241.392 118.370,241.011 117.755,240.527 117.346 C 239.656 116.608,239.654 116.608,240.281 117.383 M214.648 118.554 C 216.672 120.310,218.355 121.354,216.602 119.765 C 215.742 118.987,214.688 118.167,214.258 117.943 C 213.828 117.720,214.004 117.995,214.648 118.554 M185.058 121.816 C 184.704 122.414,183.716 123.670,182.861 124.605 C 181.122 126.507,180.578 127.736,181.592 127.468 C 181.941 127.376,182.533 126.651,182.908 125.858 C 183.283 125.064,184.137 123.656,184.805 122.730 C 185.474 121.804,185.949 120.975,185.861 120.887 C 185.773 120.799,185.412 121.217,185.058 121.816 M220.703 124.355 C 220.703 124.780,225.376 133.984,225.592 133.984 C 225.767 133.984,221.222 124.649,220.854 124.251 C 220.771 124.162,220.703 124.208,220.703 124.355 M225.208 137.708 C 225.056 139.131,225.013 140.378,225.114 140.478 C 225.214 140.578,225.421 139.496,225.573 138.073 C 225.725 136.650,225.768 135.403,225.668 135.303 C 225.567 135.203,225.361 136.285,225.208 137.708 M224.708 142.383 C 224.712 143.242,224.792 143.548,224.886 143.062 C 224.979 142.576,224.976 141.873,224.878 141.499 C 224.780 141.126,224.704 141.523,224.708 142.383 M224.135 145.508 C 223.989 146.367,223.768 147.510,223.645 148.047 C 223.522 148.584,223.696 148.320,224.031 147.461 C 224.365 146.602,224.586 145.459,224.520 144.922 C 224.429 144.173,224.339 144.310,224.135 145.508 M236.204 161.133 C 235.462 162.529,235.007 163.672,235.191 163.672 C 235.550 163.672,236.256 162.428,237.241 160.059 C 238.171 157.824,237.704 158.307,236.204 161.133 M215.625 165.430 C 215.088 165.737,214.824 165.988,215.039 165.988 C 215.254 165.988,215.869 165.737,216.406 165.430 C 216.943 165.123,217.207 164.871,216.992 164.871 C 216.777 164.871,216.162 165.123,215.625 165.430 M210.742 167.564 C 209.453 168.179,208.574 168.685,208.789 168.687 C 209.309 168.691,213.978 166.469,213.477 166.455 C 213.262 166.450,212.031 166.948,210.742 167.564 M204.688 170.117 C 204.150 170.424,203.887 170.675,204.102 170.675 C 204.316 170.675,204.932 170.424,205.469 170.117 C 206.006 169.810,206.270 169.559,206.055 169.559 C 205.840 169.559,205.225 169.810,204.688 170.117 M201.172 171.680 C 200.635 171.987,200.371 172.238,200.586 172.238 C 200.801 172.238,201.416 171.987,201.953 171.680 C 202.490 171.373,202.754 171.121,202.539 171.121 C 202.324 171.121,201.709 171.373,201.172 171.680 M195.703 174.023 C 195.166 174.330,194.902 174.582,195.117 174.582 C 195.332 174.582,195.947 174.330,196.484 174.023 C 197.021 173.716,197.285 173.465,197.070 173.465 C 196.855 173.465,196.240 173.716,195.703 174.023 M186.719 177.930 C 186.182 178.237,185.918 178.488,186.133 178.488 C 186.348 178.488,186.963 178.237,187.500 177.930 C 188.037 177.623,188.301 177.371,188.086 177.371 C 187.871 177.371,187.256 177.623,186.719 177.930 M165.332 190.247 C 164.243 190.684,164.199 190.986,165.234 190.908 C 165.664 190.876,166.016 190.701,166.016 190.519 C 166.016 190.337,166.219 190.314,166.467 190.467 C 166.746 190.640,166.812 190.574,166.639 190.295 C 166.486 190.047,166.327 189.855,166.286 189.869 C 166.245 189.882,165.815 190.052,165.332 190.247 M217.286 193.945 C 217.290 194.805,217.370 195.110,217.464 194.624 C 217.557 194.138,217.554 193.435,217.456 193.062 C 217.358 192.688,217.282 193.086,217.286 193.945 M155.176 194.790 C 154.452 195.082,154.584 195.585,155.444 195.810 C 155.871 195.922,156.287 195.780,156.400 195.485 C 156.536 195.132,156.396 195.040,155.971 195.203 C 155.551 195.365,155.435 195.293,155.623 194.988 C 155.927 194.497,155.915 194.492,155.176 194.790 M181.145 201.839 C 180.335 202.395,179.763 202.940,179.873 203.050 C 179.983 203.160,180.396 202.958,180.791 202.601 C 181.186 202.244,181.589 202.032,181.687 202.130 C 181.785 202.228,182.080 201.965,182.342 201.545 C 182.928 200.607,182.946 200.602,181.145 201.839 M165.263 211.098 C 164.951 211.475,164.935 211.729,165.215 211.902 C 165.441 212.042,165.638 212.101,165.655 212.035 C 166.034 210.503,165.941 210.281,165.263 211.098 M162.658 213.338 C 161.924 214.165,161.924 214.171,162.695 213.742 C 164.406 212.791,164.705 212.513,164.025 212.506 C 163.683 212.503,163.067 212.877,162.658 213.338 " stroke="none" fill="#525251" fill-rule="evenodd"></path><path id="path4" d="M204.079 82.776 C 204.199 82.971,204.649 83.038,205.079 82.926 C 206.153 82.645,206.057 82.422,204.860 82.422 C 204.310 82.422,203.959 82.581,204.079 82.776 M187.688 83.216 C 187.576 83.397,188.235 83.713,189.152 83.918 L 190.820 84.291 189.453 84.404 C 188.697 84.466,189.396 84.615,191.016 84.738 C 194.804 85.026,196.875 84.826,196.875 84.172 C 196.875 83.815,195.962 83.589,193.848 83.423 C 192.183 83.293,190.161 83.119,189.356 83.036 C 188.550 82.954,187.799 83.035,187.688 83.216 M196.973 83.100 C 197.993 83.180,199.663 83.180,200.684 83.100 C 201.704 83.019,200.869 82.953,198.828 82.953 C 196.787 82.953,195.952 83.019,196.973 83.100 M204.395 85.816 C 204.771 85.914,205.386 85.914,205.762 85.816 C 206.138 85.718,205.830 85.638,205.078 85.638 C 204.326 85.638,204.019 85.718,204.395 85.816 M170.020 87.379 C 170.396 87.477,171.011 87.477,171.387 87.379 C 171.763 87.280,171.455 87.200,170.703 87.200 C 169.951 87.200,169.644 87.280,170.020 87.379 M165.234 88.027 C 165.234 88.213,164.927 88.248,164.551 88.105 C 164.128 87.944,164.016 87.980,164.258 88.200 C 164.473 88.396,165.615 88.441,166.797 88.302 L 168.945 88.048 167.090 87.869 C 166.069 87.770,165.234 87.842,165.234 88.027 M174.414 88.296 C 175.703 88.456,177.659 88.606,178.761 88.629 C 180.071 88.657,180.941 88.886,181.278 89.291 C 181.621 89.705,182.152 89.839,182.873 89.695 C 183.468 89.576,184.061 89.652,184.192 89.863 C 184.322 90.074,184.587 90.149,184.780 90.030 C 184.973 89.911,186.657 90.351,188.520 91.009 C 192.881 92.548,193.234 92.267,188.987 90.637 C 183.608 88.572,180.332 87.897,175.977 87.954 C 172.310 88.002,172.214 88.023,174.414 88.296 M170.680 89.780 C 172.270 91.272,173.723 92.184,173.225 91.379 C 172.998 91.011,173.112 90.963,173.666 91.193 C 174.078 91.363,175.117 91.644,175.977 91.816 C 177.666 92.155,180.256 93.355,179.297 93.354 C 178.975 93.354,177.612 93.019,176.268 92.611 C 174.925 92.202,173.916 92.014,174.027 92.193 C 174.137 92.372,174.776 92.639,175.447 92.786 C 176.345 92.983,176.524 93.144,176.126 93.396 C 175.782 93.614,176.444 93.740,177.949 93.744 C 179.249 93.747,180.508 93.946,180.747 94.185 C 181.055 94.493,181.503 94.502,182.290 94.215 L 183.398 93.812 182.324 93.781 C 181.733 93.764,181.250 93.593,181.250 93.401 C 181.250 92.917,183.787 93.531,184.956 94.297 C 185.481 94.641,186.685 94.922,187.633 94.922 C 190.452 94.922,191.797 95.316,191.797 96.143 C 191.797 96.923,193.703 97.248,193.799 96.484 C 193.826 96.270,193.881 95.874,193.922 95.605 C 193.963 95.337,193.847 94.810,193.664 94.434 C 193.419 93.929,193.495 93.750,193.955 93.750 C 194.297 93.750,194.496 93.882,194.397 94.043 C 194.298 94.204,194.763 94.376,195.431 94.424 C 196.099 94.473,196.755 94.335,196.889 94.117 C 197.024 93.900,198.583 93.685,200.355 93.638 C 203.920 93.546,203.320 93.213,206.575 97.084 L 207.877 98.633 206.673 96.875 C 204.242 93.329,203.800 92.926,202.344 92.930 C 198.077 92.943,193.496 93.202,193.110 93.453 C 192.866 93.612,191.196 93.799,189.399 93.869 C 187.603 93.939,186.440 93.928,186.816 93.844 C 187.798 93.627,187.660 92.623,186.621 92.429 C 179.455 91.093,173.111 89.420,171.991 88.572 C 171.733 88.377,171.206 88.299,170.820 88.399 C 170.202 88.559,170.211 88.588,170.898 88.639 C 171.328 88.671,172.022 88.956,172.441 89.272 C 173.164 89.819,173.145 89.844,172.050 89.777 C 171.417 89.738,170.537 89.429,170.094 89.091 C 169.652 88.753,169.916 89.063,170.680 89.780 M216.971 89.878 C 216.827 90.111,216.904 90.498,217.143 90.737 C 217.383 90.976,217.578 91.039,217.578 90.877 C 217.578 90.714,218.034 91.075,218.591 91.677 L 219.603 92.773 218.756 91.499 C 218.283 90.788,217.720 90.342,217.482 90.489 C 217.208 90.658,217.144 90.519,217.304 90.103 C 217.585 89.372,217.372 89.229,216.971 89.878 M160.160 91.597 C 159.894 91.917,159.533 92.090,159.358 91.982 C 159.182 91.873,158.946 91.933,158.833 92.116 C 158.433 92.763,159.772 92.437,160.410 91.732 C 160.767 91.338,160.965 91.016,160.851 91.016 C 160.736 91.016,160.425 91.277,160.160 91.597 M220.136 92.682 C 220.270 93.030,222.119 94.751,224.247 96.507 C 226.374 98.264,228.020 99.854,227.904 100.041 C 227.789 100.228,227.995 100.266,228.364 100.124 C 228.819 99.950,228.944 100.014,228.752 100.324 C 228.584 100.596,228.708 100.781,229.055 100.781 C 229.378 100.781,229.768 100.987,229.924 101.238 C 230.103 101.529,230.005 101.619,229.654 101.487 C 227.939 100.841,227.344 100.759,227.344 101.169 C 227.344 101.411,227.507 101.507,227.707 101.384 C 227.907 101.260,228.181 101.338,228.316 101.556 C 228.619 102.045,229.954 102.080,230.247 101.606 C 230.365 101.415,228.661 99.730,226.461 97.863 C 224.261 95.996,221.883 93.924,221.177 93.259 C 220.471 92.594,220.003 92.335,220.136 92.682 M156.011 94.579 C 155.559 95.079,155.531 95.305,155.894 95.529 C 156.188 95.711,156.270 95.661,156.109 95.400 C 155.965 95.167,156.025 94.865,156.244 94.731 C 156.462 94.596,156.641 94.740,156.641 95.052 C 156.641 95.364,156.904 95.721,157.227 95.844 C 157.549 95.968,157.813 95.899,157.813 95.691 C 157.813 95.483,157.617 95.313,157.379 95.313 C 157.140 95.313,157.360 94.966,157.867 94.542 L 158.789 93.771 157.697 93.847 C 157.096 93.889,156.338 94.218,156.011 94.579 M188.227 98.850 C 187.344 99.619,187.341 99.636,188.168 99.236 C 189.134 98.768,189.897 98.831,190.326 99.414 C 190.491 99.638,190.616 99.531,190.619 99.163 C 190.622 98.810,190.347 98.414,190.007 98.284 C 189.183 97.968,189.273 97.939,188.227 98.850 M184.628 101.132 C 182.568 102.501,182.414 102.696,183.066 103.102 C 183.703 103.500,183.673 103.525,182.813 103.319 C 181.873 103.093,181.864 103.107,182.594 103.691 C 183.011 104.024,183.670 104.323,184.059 104.355 C 184.448 104.388,184.985 104.432,185.254 104.453 C 185.522 104.475,185.886 104.668,186.061 104.883 C 186.236 105.098,186.261 104.856,186.117 104.346 C 185.947 103.747,185.998 103.507,186.259 103.668 C 186.482 103.806,186.760 103.765,186.877 103.576 C 186.994 103.387,186.698 103.259,186.220 103.292 C 185.680 103.329,185.399 103.567,185.477 103.922 C 185.574 104.363,185.496 104.387,185.131 104.029 C 184.685 103.591,185.572 102.103,186.086 102.427 C 186.184 102.489,186.410 102.383,186.589 102.193 C 186.775 101.994,186.456 101.929,185.840 102.041 C 184.437 102.295,184.480 101.990,186.032 100.694 C 187.829 99.192,187.295 99.359,184.628 101.132 M195.117 102.306 C 195.954 102.701,210.609 108.347,211.914 108.777 C 214.859 109.746,209.107 107.206,203.320 104.981 C 197.111 102.594,192.647 101.138,195.117 102.306 M227.266 102.930 C 228.307 104.391,232.302 108.699,231.581 107.583 C 231.292 107.135,230.015 105.641,228.743 104.263 C 227.472 102.885,226.807 102.285,227.266 102.930 M193.987 103.434 C 194.722 103.839,195.133 104.332,195.031 104.688 C 194.892 105.170,194.929 105.178,195.240 104.734 C 195.544 104.299,196.730 104.780,201.324 107.197 C 207.313 110.349,209.202 111.030,204.004 108.164 C 197.453 104.552,193.919 102.759,193.359 102.763 C 193.037 102.765,193.319 103.067,193.987 103.434 M193.637 105.469 C 193.762 105.948,194.163 106.245,194.674 106.238 C 195.435 106.227,195.447 106.191,194.816 105.823 C 194.436 105.602,194.226 105.256,194.351 105.054 C 194.475 104.852,194.320 104.688,194.005 104.688 C 193.625 104.688,193.501 104.950,193.637 105.469 M191.553 106.281 C 192.121 106.728,192.469 107.283,192.326 107.514 C 192.168 107.769,192.251 107.819,192.539 107.642 C 192.970 107.375,199.658 112.123,200.816 113.519 C 201.065 113.818,201.817 114.036,202.489 114.004 C 203.677 113.947,203.681 113.941,202.632 113.782 C 201.324 113.584,198.948 111.541,199.576 111.154 C 199.871 110.971,199.816 110.697,199.398 110.280 C 199.064 109.946,198.667 109.806,198.517 109.968 C 198.366 110.130,198.462 110.342,198.730 110.438 C 198.999 110.534,199.219 110.775,199.219 110.973 C 199.219 111.172,198.879 111.122,198.463 110.863 C 198.047 110.603,197.794 110.250,197.900 110.078 C 198.006 109.906,197.758 109.766,197.349 109.766 C 196.467 109.766,195.184 108.475,195.605 108.011 C 195.766 107.833,195.678 107.814,195.407 107.970 C 194.956 108.230,193.134 107.200,191.867 105.970 C 191.583 105.694,191.164 105.469,190.935 105.469 C 190.707 105.469,190.984 105.834,191.553 106.281 M233.425 110.308 C 234.253 111.299,234.976 112.109,235.030 112.109 C 235.415 112.109,233.343 109.268,232.712 108.931 C 232.202 108.658,232.456 109.149,233.425 110.308 M213.189 121.875 C 212.907 128.214,211.668 137.833,211.259 136.858 C 211.082 136.434,211.048 136.725,211.178 137.557 C 211.398 138.970,210.782 140.816,210.209 140.462 C 210.044 140.360,209.955 141.059,210.012 142.014 C 210.069 142.993,209.941 143.750,209.718 143.750 C 209.500 143.750,209.422 144.064,209.544 144.448 C 209.699 144.937,209.184 145.720,207.830 147.053 C 206.765 148.102,205.957 149.062,206.033 149.187 C 206.109 149.312,205.266 150.388,204.160 151.578 C 203.053 152.768,202.500 153.295,202.930 152.749 L 203.711 151.758 202.649 152.693 C 202.065 153.208,201.669 153.763,201.771 153.927 C 201.872 154.091,200.592 155.499,198.926 157.057 C 197.261 158.615,196.338 159.570,196.875 159.179 C 197.412 158.788,197.061 159.255,196.094 160.218 C 195.127 161.180,194.292 162.088,194.238 162.234 C 194.185 162.380,194.061 162.456,193.964 162.402 C 193.679 162.244,190.642 165.337,190.813 165.612 C 190.898 165.751,189.312 167.401,187.288 169.281 C 185.264 171.160,183.648 172.837,183.698 173.007 C 183.805 173.372,180.590 176.953,180.156 176.953 C 179.992 176.953,178.815 178.008,177.539 179.297 C 176.263 180.586,175.368 181.641,175.548 181.641 C 175.729 181.641,175.658 181.904,175.391 182.227 C 175.123 182.549,175.058 182.825,175.245 182.840 C 175.433 182.855,175.244 183.001,174.826 183.165 C 174.100 183.449,174.105 183.473,174.924 183.687 C 175.396 183.810,175.692 183.765,175.581 183.585 C 175.470 183.406,175.733 183.147,176.166 183.010 C 176.599 182.872,176.953 182.633,176.953 182.479 C 176.953 182.324,177.333 182.169,177.797 182.134 C 178.261 182.099,178.786 181.842,178.963 181.563 C 179.140 181.283,179.288 181.199,179.291 181.376 C 179.294 181.552,179.583 181.410,179.933 181.060 C 180.283 180.710,180.810 180.516,181.105 180.629 C 181.400 180.742,181.641 180.643,181.641 180.409 C 181.641 180.130,181.847 180.154,182.236 180.476 C 182.740 180.895,182.790 180.858,182.564 180.231 C 182.417 179.825,182.434 179.616,182.601 179.767 C 182.769 179.917,183.171 179.776,183.495 179.451 C 183.820 179.127,184.326 178.954,184.621 179.067 C 184.915 179.180,185.156 179.073,185.156 178.829 C 185.156 178.585,185.265 178.494,185.398 178.627 C 185.531 178.760,185.905 178.604,186.230 178.279 C 186.554 177.955,187.070 177.785,187.375 177.903 C 187.683 178.021,187.825 177.944,187.693 177.730 C 187.351 177.177,188.033 177.252,188.617 177.832 C 189.011 178.224,189.052 178.172,188.824 177.573 C 188.625 177.051,188.677 176.910,188.996 177.107 C 189.247 177.263,189.453 177.185,189.453 176.934 C 189.453 176.684,189.717 176.580,190.039 176.704 C 190.361 176.827,190.625 176.737,190.625 176.502 C 190.625 176.224,190.831 176.248,191.220 176.570 C 191.723 176.987,191.773 176.955,191.544 176.358 C 191.358 175.873,191.416 175.741,191.730 175.936 C 191.982 176.091,192.188 176.049,192.188 175.843 C 192.188 175.193,194.384 174.619,194.902 175.133 C 195.249 175.477,195.303 175.439,195.125 174.972 C 194.874 174.310,196.631 173.240,197.295 173.651 C 197.494 173.774,197.656 173.659,197.656 173.395 C 197.656 173.132,197.765 173.025,197.898 173.158 C 198.031 173.291,198.405 173.135,198.730 172.810 C 199.054 172.486,199.560 172.313,199.855 172.426 C 200.150 172.539,200.391 172.490,200.391 172.316 C 200.391 171.656,202.400 171.045,202.982 171.528 C 203.431 171.900,203.483 171.854,203.263 171.280 C 203.077 170.795,203.135 170.663,203.449 170.857 C 203.701 171.013,203.906 170.935,203.906 170.684 C 203.906 170.433,204.178 170.333,204.512 170.462 C 204.846 170.589,205.023 170.539,204.905 170.349 C 204.648 169.932,205.783 169.438,206.285 169.748 C 206.481 169.869,206.641 169.801,206.641 169.596 C 206.641 168.981,207.873 168.704,208.457 169.189 C 208.887 169.546,208.956 169.520,208.783 169.070 C 208.528 168.406,210.345 167.419,211.064 167.831 C 211.317 167.976,211.389 167.946,211.224 167.764 C 210.710 167.199,213.297 166.324,213.929 166.849 C 214.366 167.211,214.419 167.161,214.200 166.593 C 214.014 166.107,214.072 165.976,214.387 166.170 C 214.638 166.325,214.844 166.294,214.844 166.101 C 214.844 165.414,216.836 164.781,217.435 165.278 C 217.879 165.646,217.939 165.610,217.741 165.094 C 217.577 164.667,217.700 164.453,218.110 164.453 C 218.497 164.453,218.642 164.235,218.501 163.867 C 218.377 163.545,218.465 163.281,218.696 163.281 C 218.927 163.281,219.015 163.018,218.891 162.695 C 218.768 162.373,218.855 162.109,219.087 162.109 C 219.318 162.109,219.406 161.846,219.282 161.523 C 219.158 161.201,219.246 160.938,219.477 160.938 C 219.708 160.938,219.796 160.674,219.673 160.352 C 219.549 160.029,219.637 159.766,219.868 159.766 C 220.099 159.766,220.187 159.502,220.063 159.180 C 219.939 158.857,220.027 158.594,220.258 158.594 C 220.490 158.594,220.577 158.330,220.454 158.008 C 220.330 157.686,220.418 157.422,220.649 157.422 C 220.880 157.422,220.968 157.158,220.844 156.836 C 220.721 156.514,220.798 156.250,221.015 156.250 C 221.233 156.250,221.312 155.871,221.191 155.408 C 221.041 154.835,221.114 154.654,221.418 154.842 C 221.709 155.021,221.784 154.905,221.633 154.512 C 221.505 154.179,221.590 153.906,221.821 153.906 C 222.052 153.906,222.140 153.643,222.016 153.320 C 221.893 152.998,221.980 152.734,222.212 152.734 C 222.443 152.734,222.531 152.471,222.407 152.148 C 222.283 151.826,222.371 151.563,222.602 151.563 C 222.833 151.563,222.921 151.299,222.798 150.977 C 222.674 150.654,222.762 150.391,222.993 150.391 C 223.224 150.391,223.312 150.127,223.188 149.805 C 223.064 149.482,223.141 149.219,223.359 149.219 C 223.577 149.219,223.656 148.840,223.535 148.376 C 223.394 147.837,223.464 147.626,223.730 147.791 C 223.999 147.957,224.066 147.736,223.919 147.169 C 223.710 146.356,223.750 146.332,224.444 146.856 C 225.035 147.302,225.091 147.306,224.707 146.876 C 224.159 146.261,224.029 143.977,224.561 144.306 C 224.749 144.422,224.811 143.703,224.699 142.708 C 224.566 141.528,224.633 140.984,224.894 141.145 C 225.153 141.305,225.231 140.743,225.117 139.544 C 224.997 138.283,225.061 137.867,225.319 138.236 C 225.576 138.604,225.639 138.167,225.514 136.869 C 225.379 135.455,225.439 135.113,225.746 135.547 C 226.106 136.057,226.161 136.049,226.166 135.482 C 226.169 135.124,225.952 134.742,225.684 134.634 C 225.293 134.476,225.293 134.431,225.684 134.406 C 225.983 134.387,225.858 134.061,225.360 133.564 C 224.914 133.117,224.648 132.493,224.770 132.176 C 224.892 131.859,224.851 131.687,224.679 131.793 C 224.239 132.065,221.411 126.217,221.732 125.697 C 221.881 125.456,221.817 125.380,221.586 125.523 C 221.121 125.810,220.584 124.728,220.920 124.183 C 221.041 123.988,220.943 123.828,220.703 123.828 C 220.463 123.828,220.375 123.652,220.508 123.438 C 220.641 123.223,220.553 123.047,220.313 123.047 C 220.072 123.047,219.984 122.871,220.117 122.656 C 220.250 122.441,220.095 122.266,219.772 122.266 C 219.449 122.266,218.908 121.870,218.569 121.387 C 218.231 120.903,217.854 120.573,217.731 120.652 C 217.324 120.915,214.088 118.244,214.333 117.847 C 214.465 117.633,214.386 117.574,214.156 117.716 C 213.927 117.857,213.664 117.753,213.573 117.483 C 213.482 117.213,213.309 119.189,213.189 121.875 M208.594 146.997 C 208.594 147.064,208.022 147.636,207.324 148.267 L 206.055 149.414 207.202 148.145 C 208.271 146.961,208.594 146.695,208.594 146.997 M193.359 163.403 C 193.359 163.471,192.788 164.042,192.090 164.673 L 190.820 165.820 191.968 164.551 C 193.037 163.367,193.359 163.102,193.359 163.403 M188.281 168.861 C 188.281 168.922,187.271 169.933,186.035 171.107 L 183.789 173.242 185.924 170.996 C 187.908 168.909,188.281 168.571,188.281 168.861 M180.078 177.455 C 180.078 177.516,179.067 178.527,177.832 179.701 L 175.586 181.836 177.721 179.590 C 179.705 177.503,180.078 177.165,180.078 177.455 M216.673 185.306 C 216.560 185.601,216.621 185.996,216.809 186.184 C 216.997 186.372,217.212 187.932,217.286 189.650 L 217.421 192.773 217.500 188.988 C 217.571 185.552,217.205 183.921,216.673 185.306 M160.084 192.742 C 156.949 194.441,156.725 194.873,159.766 193.359 C 162.505 191.995,162.715 191.864,162.467 191.668 C 162.378 191.597,161.305 192.081,160.084 192.742 M201.549 194.824 L 199.414 197.070 201.660 194.935 C 202.896 193.761,203.906 192.750,203.906 192.689 C 203.906 192.399,203.533 192.738,201.549 194.824 M204.794 194.141 C 204.794 195.107,204.870 195.503,204.963 195.020 C 205.056 194.536,205.056 193.745,204.963 193.262 C 204.870 192.778,204.794 193.174,204.794 194.141 M156.110 194.153 C 155.411 195.336,155.593 195.599,156.641 194.922 C 157.101 194.624,157.112 194.542,156.690 194.537 C 156.254 194.532,156.247 194.420,156.648 193.936 C 156.920 193.608,157.064 193.262,156.969 193.167 C 156.873 193.071,156.487 193.515,156.110 194.153 M204.395 201.758 C 204.400 202.617,204.480 202.923,204.573 202.437 C 204.667 201.951,204.663 201.248,204.565 200.874 C 204.467 200.501,204.391 200.898,204.395 201.758 M161.689 213.962 C 160.999 214.742,160.963 214.848,161.555 214.352 C 162.002 213.977,162.456 213.758,162.564 213.866 C 162.672 213.974,162.760 213.799,162.760 213.477 C 162.760 212.725,162.798 212.708,161.689 213.962 M198.541 265.515 C 199.134 265.604,200.013 265.602,200.494 265.509 C 200.974 265.417,200.488 265.343,199.414 265.346 C 198.340 265.349,197.947 265.425,198.541 265.515 M161.634 272.163 C 162.769 272.243,164.527 272.242,165.540 272.162 C 166.554 272.081,165.625 272.017,163.477 272.018 C 161.328 272.019,160.499 272.084,161.634 272.163 M234.766 292.773 C 234.766 293.311,234.917 293.750,235.102 293.750 C 235.287 293.750,235.355 293.311,235.252 292.773 C 235.149 292.236,234.998 291.797,234.915 291.797 C 234.833 291.797,234.766 292.236,234.766 292.773 " stroke="none" fill="#3b4442" fill-rule="evenodd"></path></g></svg>