<?xml version="1.0" standalone="no"?>
<!DOCTYPE svg PUBLIC "-//W3C//DTD SVG 20010904//EN"
 "http://www.w3.org/TR/2001/REC-SVG-20010904/DTD/svg10.dtd">
<svg version="1.0" xmlns="http://www.w3.org/2000/svg"
 width="1024.000000pt" height="1024.000000pt" viewBox="0 0 1024.000000 1024.000000"
 preserveAspectRatio="xMidYMid meet">

<g transform="translate(0.000000,1024.000000) scale(0.100000,-0.100000)"
fill="#000000" stroke="none">
<path d="M4721 8091 l-92 -69 -97 -7 c-294 -19 -320 -22 -354 -46 -30 -21
-223 -184 -256 -216 -11 -11 -8 -13 16 -13 16 0 62 -8 103 -19 41 -10 172 -38
292 -62 171 -33 223 -40 235 -31 10 6 60 37 112 68 113 68 144 90 117 80 -10
-3 -83 -1 -161 6 -120 9 -169 9 -317 -6 -240 -23 -359 -30 -359 -22 0 21 106
37 383 56 131 9 189 9 350 -5 180 -16 207 -20 196 -29 -30 -25 -244 -156 -256
-156 -12 0 -10 -5 7 -23 12 -13 60 -81 105 -152 l82 -128 -17 -46 c-34 -90
-53 -136 -63 -148 -5 -7 -6 -13 -2 -13 4 0 83 39 175 87 l168 87 -99 105 c-55
57 -99 108 -99 113 0 8 193 -135 240 -178 l26 -23 129 19 c72 11 140 22 152
25 16 4 45 -13 115 -68 51 -39 105 -81 120 -92 17 -13 60 -87 117 -201 l92
-181 -26 -164 c-26 -162 -88 -378 -189 -656 -19 -51 -32 -93 -30 -93 3 0 101
59 219 131 l214 130 80 166 c45 91 81 170 81 176 0 7 -43 166 -96 354 l-97
342 -141 59 c-78 33 -176 74 -218 92 -61 25 -84 40 -108 73 -16 22 -30 44 -30
48 0 9 171 -60 375 -151 191 -86 255 -112 255 -104 0 8 -72 94 -205 243 -60
68 -124 140 -142 160 -17 20 -30 37 -28 39 1 2 29 -4 61 -12 32 -8 60 -14 62
-12 3 4 -229 206 -315 275 -24 19 -41 36 -40 38 2 2 39 -6 82 -17 144 -37 142
-34 -118 129 l-178 111 -268 0 -268 0 -92 -69z m300 -128 c13 -16 33 -38 43
-50 l19 -23 -43 0 c-38 0 -48 5 -84 42 l-40 43 30 6 c47 11 49 10 75 -18z"/>
<path d="M4956 7961 c-6 -10 31 -45 57 -55 34 -11 39 6 11 35 -27 28 -58 37
-68 20z m65 -27 c12 -15 11 -16 -11 -9 -35 10 -49 25 -23 25 11 0 27 -7 34
-16z"/>
<path d="M4588 7613 c7 -3 16 -2 19 1 4 3 -2 6 -13 5 -11 0 -14 -3 -6 -6z"/>
<path d="M5260 7246 l-145 -22 -190 -102 c-104 -57 -211 -113 -238 -125 -42
-19 -50 -28 -68 -77 -12 -30 -99 -269 -194 -530 -226 -620 -380 -1031 -405
-1080 -11 -22 -17 -40 -13 -40 5 0 1 -4 -7 -10 -8 -5 -12 -11 -10 -13 9 -7
250 126 250 138 0 7 12 20 28 29 l27 17 -24 -21 c-13 -11 -22 -23 -19 -25 3
-3 25 12 49 33 24 21 64 50 89 64 43 25 473 215 975 430 l240 103 78 235 c61
187 81 263 97 370 11 74 20 146 20 160 -1 14 -35 95 -78 182 l-77 156 -99 76
c-58 44 -108 75 -120 75 -12 -1 -86 -12 -166 -23z m106 -670 c-12 -64 12 -35
-280 -351 -376 -407 -666 -704 -728 -746 -69 -47 -92 -52 -27 -6 65 46 92 71
204 188 55 57 151 157 213 222 67 70 110 122 106 129 -4 6 -3 8 3 5 6 -4 66
53 134 126 68 73 174 186 234 251 78 84 114 130 122 159 7 22 11 42 10 43 -2
2 -302 -296 -667 -661 -364 -366 -665 -665 -667 -665 -3 0 4 10 14 23 20 25
1337 1347 1339 1344 1 -1 -4 -29 -10 -61z m-1206 -1230 c0 -2 -7 -7 -16 -10
-8 -3 -12 -2 -9 4 6 10 25 14 25 6z"/>
<path d="M5999 6044 c-13 -14 -99 -73 -192 -132 -171 -109 -280 -185 -537
-375 -495 -366 -610 -453 -610 -461 0 -8 -80 -209 -374 -936 -52 -129 -93
-236 -91 -238 2 -2 83 50 182 115 l178 118 80 240 c44 132 109 330 144 440 35
110 72 216 83 235 10 19 17 28 15 20 -3 -8 -23 -89 -47 -180 -62 -243 -149
-559 -167 -608 -9 -23 -13 -46 -9 -49 6 -7 169 74 246 123 l36 22 87 413 88
414 69 70 69 69 -6 -169 c-3 -111 -2 -167 4 -160 14 14 266 412 287 454 26 50
34 26 35 -113 1 -66 3 -122 6 -124 2 -2 62 112 133 254 106 213 230 438 310
562 19 29 11 28 -19 -4z"/>
<path d="M5536 5914 c-16 -9 -153 -70 -305 -136 -152 -66 -310 -135 -351 -153
-41 -18 -190 -83 -330 -145 -140 -61 -261 -114 -267 -118 -19 -11 -397 -766
-381 -759 36 13 258 174 418 300 194 155 653 502 1005 760 141 104 232 177
236 190 23 86 23 86 -25 61z"/>
<path d="M4500 4974 c-41 -30 -110 -76 -154 -102 -70 -41 -82 -53 -101 -97
-48 -107 -288 -613 -320 -672 -18 -35 -32 -63 -31 -63 0 0 73 26 161 58 l160
58 29 59 c25 51 338 816 333 814 -1 0 -36 -25 -77 -55z"/>
<path d="M5000 3616 c-178 -40 -273 -181 -229 -340 15 -55 91 -128 162 -154
31 -12 102 -33 158 -47 120 -31 156 -47 171 -80 18 -40 2 -74 -45 -95 -81 -37
-225 -20 -336 40 -51 28 -71 31 -71 9 0 -6 -16 -38 -36 -71 -39 -68 -42 -62
46 -107 75 -39 148 -60 239 -67 177 -14 347 62 394 176 55 133 9 254 -120 319
-24 12 -101 37 -173 56 -71 19 -138 40 -149 47 -55 34 -51 101 9 130 63 32
180 18 284 -33 33 -16 60 -28 61 -27 1 2 20 36 43 77 48 84 50 80 -43 126
-100 49 -251 66 -365 41z"/>
<path d="M3790 3165 l0 -446 108 3 107 3 0 183 0 182 198 0 197 0 0 -185 0
-185 110 0 110 0 0 445 0 445 -110 0 -110 0 0 -170 0 -170 -195 0 -195 0 -2
148 c0 81 0 157 1 170 2 22 0 22 -109 22 l-110 0 0 -445z"/>
<path d="M5610 3165 l0 -445 105 0 105 0 0 445 0 445 -105 0 -105 0 0 -445z"/>
<path d="M6034 3168 l1 -443 108 -3 107 -3 0 446 0 445 -109 0 -108 0 1 -442z"/>
</g>
</svg>
